<?xml version="1.0" encoding="UTF-8"?>
<svg width="90px" height="90px" viewBox="0 0 90 90" version="1.1" xmlns="http://www.w3.org/2000/svg" xmlns:xlink="http://www.w3.org/1999/xlink">
    <title>Logo/SuperG</title>
    <g id="Newsletter-Opt-in*" stroke="none" stroke-width="1" fill="none" fill-rule="evenodd">
        <g id="subscribe/06" transform="translate(-189.000000, -138.000000)">
            <g id="Logo/SuperG" transform="translate(189.000000, 138.000000)">
                <g id="logo_gsa_ios_152px_clr">
                    <path d="M72.225,45.6453947 C72.225,43.5671053 72.0414474,41.5776316 71.6921053,39.6710526 L45,39.6710526 L45,50.6368421 L60.3710526,50.6368421 C59.7434211,54.2782895 57.7361842,57.375 54.6631579,59.4473684 L54.6631579,66.5526316 L63.8171053,66.5526316 C69.1638158,61.6026316 72.225,54.2901316 72.225,45.6453947 L72.225,45.6453947 Z" id="Shape" fill="#4285F4" fill-rule="nonzero"></path>
                    <path d="M45,73.4210526 C52.6796053,73.4210526 59.1276316,70.8986842 63.8171053,66.5467105 L54.6631579,59.4414474 C52.1171053,61.1585526 48.8368421,62.1651316 45,62.1651316 C37.5868421,62.1651316 31.2986842,57.1677632 29.0427632,50.4355263 L19.6046053,50.4355263 L19.6046053,57.7598684 C24.2822368,67.05 33.8921053,73.4210526 45,73.4210526 Z" id="Shape" fill="#34A853" fill-rule="nonzero"></path>
                    <path d="M29.0427632,50.4414474 C28.4684211,48.7243421 28.1546053,46.8947368 28.1546053,45 C28.1546053,43.1052632 28.4684211,41.2815789 29.0427632,39.5585526 L29.0427632,32.2401316 L19.6046053,32.2401316 C17.6743421,36.0769737 16.5789474,40.4111842 16.5789474,45 C16.5789474,49.5888158 17.6743421,53.9230263 19.6046053,57.7598684 L29.0427632,50.4414474 Z" id="Shape" fill="#FBBC05" fill-rule="nonzero"></path>
                    <path d="M45,27.8289474 C49.1861842,27.8289474 52.9401316,29.2736842 55.9065789,32.0921053 L55.9065789,32.0980263 L64.0184211,23.9861842 C59.0921053,19.3973684 52.6677632,16.5789474 45,16.5789474 C33.8921053,16.5789474 24.2822368,22.95 19.6046053,32.2401316 L29.0427632,39.5644737 C31.2986842,32.8263158 37.5868421,27.8289474 45,27.8289474 Z" id="Shape" fill="#EA4335" fill-rule="nonzero"></path>
                    <polygon id="Shape" points="16.5789474 16.5789474 73.4210526 16.5789474 73.4210526 73.4210526 16.5789474 73.4210526"></polygon>
                </g>
            </g>
        </g>
    </g>
</svg>